<svg width="32" height="32" viewBox="0 0 32 32" fill="none" xmlns="http://www.w3.org/2000/svg">
<path fill-rule="evenodd" clip-rule="evenodd" d="M2.66602 29.3333C2.66602 28.5969 3.26298 28 3.99935 28H27.9993C28.7357 28 29.3327 28.5969 29.3327 29.3333C29.3327 30.0697 28.7357 30.6667 27.9993 30.6667H3.99935C3.26298 30.6667 2.66602 30.0697 2.66602 29.3333Z" fill="#23ACEB"/>
<path fill-rule="evenodd" clip-rule="evenodd" d="M5.66602 5.33366C5.66602 3.30861 7.30764 1.66699 9.33268 1.66699L22.666 1.66701C24.6911 1.66701 26.3327 3.30863 26.3327 5.33367V29.3337C26.3327 29.8859 25.8849 30.3337 25.3327 30.3337H6.66602C6.11374 30.3337 5.66602 29.8859 5.66602 29.3337V5.33366ZM11.666 24.0002C11.6661 22.7115 12.7107 21.667 13.9993 21.667H17.9993C19.288 21.667 20.3328 22.7118 20.3327 24.0005V29.1555C20.3327 29.7078 19.8849 30.1555 19.3327 30.1555C18.7803 30.1555 18.3327 29.7078 18.3327 29.1554V24.0003C18.3327 23.8162 18.1835 23.667 17.9993 23.667H13.9993C13.8152 23.667 13.666 23.8162 13.666 24.0003V29.1555C13.666 29.7078 13.2182 30.1555 12.666 30.1555C12.1137 30.1555 11.666 29.7078 11.666 29.1554V24.0002ZM13.3327 7.00033C12.7804 7.00033 12.3327 7.44805 12.3327 8.00033C12.3327 8.55261 12.7804 9.00033 13.3327 9.00033H18.666C19.2183 9.00033 19.666 8.55261 19.666 8.00033C19.666 7.44805 19.2183 7.00033 18.666 7.00033H13.3327ZM13.3327 11.667C12.7804 11.667 12.3327 12.1147 12.3327 12.667C12.3327 13.2193 12.7804 13.667 13.3327 13.667H18.666C19.2183 13.667 19.666 13.2193 19.666 12.667C19.666 12.1147 19.2183 11.667 18.666 11.667H13.3327ZM13.3327 16.3337C12.7804 16.3337 12.3327 16.7814 12.3327 17.3337C12.3327 17.8859 12.7804 18.3337 13.3327 18.3337H18.666C19.2183 18.3337 19.666 17.8859 19.666 17.3337C19.666 16.7814 19.2183 16.3337 18.666 16.3337H13.3327Z" fill="#23ACEB"/>
</svg>
