<svg width="32" height="32" viewBox="0 0 32 32" fill="none" xmlns="http://www.w3.org/2000/svg">
<path fill-rule="evenodd" clip-rule="evenodd" d="M5.33333 3.66699C6.06972 3.66699 6.66667 4.26395 6.66667 5.00033V10.4648C6.66667 11.2012 6.06972 11.7981 5.33333 11.7981C4.59696 11.7981 4 11.2012 4 10.4648V5.00033C4 4.26395 4.59696 3.66699 5.33333 3.66699Z" fill="#AF3EE8"/>
<path fill-rule="evenodd" clip-rule="evenodd" d="M10.6667 23.3334C10.6667 22.597 10.0697 22.0001 9.33333 22.0001C8.59695 22.0001 8 22.597 8 23.3334V27.5337C8 27.9108 8 28.0993 7.88284 28.2165C7.76568 28.3337 7.57712 28.3337 7.2 28.3337H4C3.44771 28.3337 3 27.886 3 27.3337V17.1812C3 16.9493 3 16.8333 3.05932 16.76C3.11864 16.6866 3.24952 16.6586 3.51125 16.6026C4.12859 16.4706 4.70751 16.1368 5.14105 15.6114L9.30369 10.5683C9.47828 10.3567 9.56557 10.251 9.68343 10.2453C9.80128 10.2397 9.89824 10.3367 10.0922 10.5306L14.7829 15.222C14.9323 15.373 15.1533 15.5965 15.4397 15.8196C15.5549 15.9093 15.6125 15.9541 15.6395 16.0094C15.6666 16.0649 15.6666 16.1322 15.6666 16.2668V27.3337C15.6666 27.886 15.219 28.3337 14.6666 28.3337H11.4667C11.0895 28.3337 10.901 28.3337 10.7838 28.2165C10.6667 28.0993 10.6667 27.9108 10.6667 27.5337V23.3334ZM10.6771 16.6668C10.6771 17.4032 10.0828 18.0001 9.34971 18.0001H9.33779C8.60469 18.0001 8.01041 17.4032 8.01041 16.6668C8.01041 15.9304 8.60469 15.3334 9.33779 15.3334H9.34971C10.0828 15.3334 10.6771 15.9304 10.6771 16.6668Z" fill="#AF3EE8"/>
<path fill-rule="evenodd" clip-rule="evenodd" d="M17.4142 16.733C17.4948 16.6546 17.644 16.6583 17.9422 16.6658C18.0688 16.6689 18.1806 16.6683 18.2732 16.6678L28.469 16.6673C28.7186 16.6673 28.8435 16.6673 28.9215 16.7453C28.9997 16.8233 28.9998 16.9475 29.0002 17.1962C29.0003 17.3333 29.0003 17.4733 29.0003 17.6162V27.3339C29.0003 27.8862 28.5526 28.3339 28.0003 28.3339H17.9313C17.5976 28.3339 17.4307 28.3339 17.3515 28.2475C17.2722 28.161 17.2894 27.9631 17.3237 27.5673C17.3304 27.4905 17.3338 27.4126 17.3338 27.3339V17.2295C17.3338 16.9509 17.3338 16.8115 17.4142 16.733ZM24.0006 21.6673C24.553 21.6673 25.0006 21.2195 25.0006 20.6673C25.0006 20.115 24.553 19.6673 24.0006 19.6673H21.334C20.7817 19.6673 20.334 20.115 20.334 20.6673C20.334 21.2195 20.7817 21.6673 21.334 21.6673H24.0006Z" fill="#AF3EE8"/>
<path d="M22.9723 5.34642C22.2287 4.99811 21.3985 4.999 20.3504 5.00012L9.33272 5.00024C9.32363 5.00024 9.31455 5.00038 9.30551 5.00062C9.24443 5.00227 9.21388 5.0031 9.20804 5.00308C9.20219 5.00307 9.17943 5.00235 9.13389 5.00092C8.76621 4.98938 8.3972 5.14268 8.14344 5.45012L1.95301 12.9501C1.51526 13.4804 1.58624 14.2686 2.11153 14.7106C2.63682 15.1526 3.41752 15.0808 3.85526 14.5506L8.99844 8.31935C9.26031 8.00208 9.39125 7.84346 9.56803 7.83502C9.7448 7.82659 9.89024 7.97203 10.1811 8.26293L15.9199 14.0019C16.226 14.3099 16.5565 14.6422 16.9921 14.8227C17.4277 15.0031 17.8964 15.0018 18.3305 15.0004L29.3327 15.0003C29.7208 15.0003 30.0737 14.7758 30.2383 14.4244C30.4029 14.0731 30.3493 13.6582 30.1009 13.36L24.9168 7.13893C24.2467 6.33305 23.716 5.69473 22.9723 5.34642Z" fill="#AF3EE8"/>
</svg>
