<svg width="33" height="32" viewBox="0 0 33 32" fill="none" xmlns="http://www.w3.org/2000/svg">
<path fill-rule="evenodd" clip-rule="evenodd" d="M4.49935 13C5.23574 13 5.83268 13.5969 5.83268 14.3333V20.3333C5.83268 22.2567 5.83552 23.5649 5.96724 24.5448C6.09382 25.4861 6.31698 25.9221 6.61374 26.2189C6.9105 26.5157 7.34652 26.7389 8.28792 26.8655C9.26768 26.9972 10.576 27 12.4993 27H20.4993C22.4227 27 23.7311 26.9972 24.7108 26.8655C25.6521 26.7389 26.0881 26.5157 26.3849 26.2189C26.6817 25.9221 26.9049 25.4861 27.0315 24.5448C27.1632 23.5649 27.166 22.2567 27.166 20.3333V14.3333C27.166 13.5969 27.7629 13 28.4993 13C29.2357 13 29.8327 13.5969 29.8327 14.3333V20.4273C29.8327 22.2329 29.8328 23.7217 29.6744 24.9001C29.508 26.1372 29.1453 27.2297 28.2705 28.1045C27.3957 28.9793 26.3032 29.342 25.0661 29.5083C23.8877 29.6668 22.3989 29.6667 20.5935 29.6667H12.4053C10.5998 29.6667 9.11095 29.6668 7.9326 29.5083C6.6955 29.342 5.60292 28.9793 4.72812 28.1045C3.85331 27.2297 3.49068 26.1372 3.32435 24.9001C3.16594 23.7217 3.16598 22.2329 3.16602 20.4275V14.3333C3.16602 13.5969 3.76298 13 4.49935 13Z" fill="#26CC50"/>
<path d="M4.75459 5.94546C4.75459 3.94349 6.38739 2.33301 8.38618 2.33301H24.6126C26.6113 2.33301 28.2442 3.94349 28.2442 5.94546C28.2442 6.6793 28.437 7.40086 28.8043 8.03886L30.1192 10.3233C30.4643 10.9223 30.7445 11.4086 30.8123 12.2219C30.8397 12.5524 30.8428 12.8305 30.8007 13.0989C30.7604 13.3559 30.6835 13.5619 30.6268 13.7135L30.6185 13.7361C29.908 15.6435 28.0624 16.9997 25.9011 16.9997C24.0927 16.9997 22.5024 16.049 21.6159 14.6189C20.4111 16.0763 18.5588 16.9997 16.4994 16.9997C14.4399 16.9997 12.5876 16.0763 11.3828 14.6189C10.4963 16.049 8.9061 16.9997 7.09768 16.9997C4.93626 16.9997 3.09075 15.6435 2.38022 13.7359L2.37183 13.7135C2.31522 13.5619 2.2383 13.3559 2.19798 13.0989C2.15588 12.8305 2.15894 12.5524 2.18646 12.2219C2.25419 11.4086 2.53439 10.9223 2.87947 10.3233L4.19446 8.03886C4.56171 7.40086 4.75459 6.6793 4.75459 5.94546Z" fill="#26CC50"/>
<path fill-rule="evenodd" clip-rule="evenodd" d="M8.5 23.3333C8.5 22.5969 9.09696 22 9.83333 22H15.1667C15.9031 22 16.5 22.5969 16.5 23.3333C16.5 24.0697 15.9031 24.6667 15.1667 24.6667H9.83333C9.09696 24.6667 8.5 24.0697 8.5 23.3333Z" fill="#26CC50"/>
</svg>
