<svg width="32" height="32" viewBox="0 0 32 32" fill="none" xmlns="http://www.w3.org/2000/svg">
<path d="M3.96889 24.5945H6.7931V26.9999H3.96889V24.5945ZM25.7218 24.5945H28.546V26.9999H25.7218V24.5945ZM6.18294 11.3064C6.18349 10.8005 6.38469 10.3155 6.7424 9.95783C7.10012 9.60012 7.58512 9.39891 8.091 9.39836H14.7449C15.0375 9.39842 15.3261 9.46583 15.5884 9.59537C15.8507 9.72491 16.0796 9.9131 16.2575 10.1454C16.4354 9.9131 16.6643 9.72491 16.9266 9.59537C17.1889 9.46583 17.4775 9.39842 17.7701 9.39836H24.424C24.9299 9.39891 25.4149 9.60012 25.7726 9.95783C26.1303 10.3155 26.3315 10.8005 26.3321 11.3064V14.2132H28.8854V9.7865C28.8841 8.62299 28.4213 7.50751 27.5986 6.68479C26.7759 5.86206 25.6604 5.39927 24.4969 5.39795H8.01745C6.85394 5.39927 5.73847 5.86206 4.91574 6.68479C4.09302 7.50751 3.63023 8.62299 3.62891 9.7865V14.2132H6.18224L6.18294 11.3064Z" fill="#FF900C"/>
<path d="M8.09078 10.1616C7.78726 10.162 7.49625 10.2827 7.28163 10.4973C7.067 10.7119 6.94628 11.0029 6.94595 11.3065V14.2132H15.8618V11.3065C15.8618 11.2416 15.8651 11.1767 15.8717 11.1122C15.8256 10.8465 15.6874 10.6055 15.4812 10.4317C15.2751 10.2579 15.0142 10.1624 14.7446 10.1619L8.09078 10.1616ZM17.7699 10.1616C17.4663 10.162 17.1753 10.2827 16.9607 10.4973C16.7461 10.7119 16.6254 11.0029 16.625 11.3065V14.2132H25.5687V11.3065C25.5683 11.0029 25.4476 10.7119 25.233 10.4973C25.0183 10.2827 24.7273 10.162 24.4238 10.1616H17.7699ZM1.67969 21.8455H30.8349V23.8313H1.67969V21.8455ZM28.9268 14.9765H3.58775C3.08187 14.977 2.59687 15.1782 2.23916 15.5359C1.88144 15.8936 1.68024 16.3786 1.67969 16.8845V21.0823H30.8349V16.8845C30.8344 16.3786 30.6332 15.8936 30.2754 15.5359C29.9177 15.1782 29.4327 14.977 28.9268 14.9765Z" fill="#FF900C"/>
</svg>
