<svg width="32" height="32" viewBox="0 0 32 32" fill="none" xmlns="http://www.w3.org/2000/svg">
<path fill-rule="evenodd" clip-rule="evenodd" d="M6.66667 2.6665C6.31304 2.6665 5.97391 2.80698 5.72386 3.05703C5.47381 3.30708 5.33333 3.64622 5.33333 3.99984V27.9998H4.66667C4.48986 27.9998 4.32029 28.0701 4.19526 28.1951C4.07024 28.3201 4 28.4897 4 28.6665C4 28.8433 4.07024 29.0129 4.19526 29.1379C4.32029 29.2629 4.48986 29.3332 4.66667 29.3332H10V25.3332C10 24.9795 10.1405 24.6404 10.3905 24.3904C10.6406 24.1403 10.9797 23.9998 11.3333 23.9998H14C14.3536 23.9998 14.6928 24.1403 14.9428 24.3904C15.1929 24.6404 15.3333 24.9795 15.3333 25.3332V29.3332H27.3333C27.5101 29.3332 27.6797 29.2629 27.8047 29.1379C27.9298 29.0129 28 28.8433 28 28.6665C28 28.4897 27.9298 28.3201 27.8047 28.1951C27.6797 28.0701 27.5101 27.9998 27.3333 27.9998H26.6667V7.99984C26.6667 7.64622 26.5262 7.30708 26.2761 7.05703C26.0261 6.80698 25.687 6.6665 25.3333 6.6665H20V3.99984C20 3.64622 19.8595 3.30708 19.6095 3.05703C19.3594 2.80698 19.0203 2.6665 18.6667 2.6665H6.66667ZM10 6.6665C9.82319 6.6665 9.65362 6.73674 9.5286 6.86177C9.40357 6.98679 9.33333 7.15636 9.33333 7.33317V8.6665C9.33333 8.84332 9.40357 9.01288 9.5286 9.13791C9.65362 9.26293 9.82319 9.33317 10 9.33317H11.3333C11.5101 9.33317 11.6797 9.26293 11.8047 9.13791C11.9298 9.01288 12 8.84332 12 8.6665V7.33317C12 7.15636 11.9298 6.98679 11.8047 6.86177C11.6797 6.73674 11.5101 6.6665 11.3333 6.6665H10ZM9.33333 11.3332C9.33333 11.1564 9.40357 10.9868 9.5286 10.8618C9.65362 10.7367 9.82319 10.6665 10 10.6665H11.3333C11.5101 10.6665 11.6797 10.7367 11.8047 10.8618C11.9298 10.9868 12 11.1564 12 11.3332V12.6665C12 12.8433 11.9298 13.0129 11.8047 13.1379C11.6797 13.2629 11.5101 13.3332 11.3333 13.3332H10C9.82319 13.3332 9.65362 13.2629 9.5286 13.1379C9.40357 13.0129 9.33333 12.8433 9.33333 12.6665V11.3332ZM10 14.6665C9.82319 14.6665 9.65362 14.7367 9.5286 14.8618C9.40357 14.9868 9.33333 15.1564 9.33333 15.3332V16.6665C9.33333 16.8433 9.40357 17.0129 9.5286 17.1379C9.65362 17.2629 9.82319 17.3332 10 17.3332H11.3333C11.5101 17.3332 11.6797 17.2629 11.8047 17.1379C11.9298 17.0129 12 16.8433 12 16.6665V15.3332C12 15.1564 11.9298 14.9868 11.8047 14.8618C11.6797 14.7367 11.5101 14.6665 11.3333 14.6665H10ZM9.33333 19.3332C9.33333 19.1564 9.40357 18.9868 9.5286 18.8618C9.65362 18.7367 9.82319 18.6665 10 18.6665H11.3333C11.5101 18.6665 11.6797 18.7367 11.8047 18.8618C11.9298 18.9868 12 19.1564 12 19.3332V20.6665C12 20.8433 11.9298 21.0129 11.8047 21.1379C11.6797 21.2629 11.5101 21.3332 11.3333 21.3332H10C9.82319 21.3332 9.65362 21.2629 9.5286 21.1379C9.40357 21.0129 9.33333 20.8433 9.33333 20.6665V19.3332ZM14 6.6665C13.8232 6.6665 13.6536 6.73674 13.5286 6.86177C13.4036 6.98679 13.3333 7.15636 13.3333 7.33317V8.6665C13.3333 8.84332 13.4036 9.01288 13.5286 9.13791C13.6536 9.26293 13.8232 9.33317 14 9.33317H15.3333C15.5101 9.33317 15.6797 9.26293 15.8047 9.13791C15.9298 9.01288 16 8.84332 16 8.6665V7.33317C16 7.15636 15.9298 6.98679 15.8047 6.86177C15.6797 6.73674 15.5101 6.6665 15.3333 6.6665H14ZM21.3333 11.3332C21.3333 11.1564 21.4036 10.9868 21.5286 10.8618C21.6536 10.7367 21.8232 10.6665 22 10.6665H23.3333C23.5101 10.6665 23.6797 10.7367 23.8047 10.8618C23.9298 10.9868 24 11.1564 24 11.3332V12.6665C24 12.8433 23.9298 13.0129 23.8047 13.1379C23.6797 13.2629 23.5101 13.3332 23.3333 13.3332H22C21.8232 13.3332 21.6536 13.2629 21.5286 13.1379C21.4036 13.0129 21.3333 12.8433 21.3333 12.6665V11.3332ZM22 14.6665C21.8232 14.6665 21.6536 14.7367 21.5286 14.8618C21.4036 14.9868 21.3333 15.1564 21.3333 15.3332V16.6665C21.3333 16.8433 21.4036 17.0129 21.5286 17.1379C21.6536 17.2629 21.8232 17.3332 22 17.3332H23.3333C23.5101 17.3332 23.6797 17.2629 23.8047 17.1379C23.9298 17.0129 24 16.8433 24 16.6665V15.3332C24 15.1564 23.9298 14.9868 23.8047 14.8618C23.6797 14.7367 23.5101 14.6665 23.3333 14.6665H22ZM21.3333 19.3332C21.3333 19.1564 21.4036 18.9868 21.5286 18.8618C21.6536 18.7367 21.8232 18.6665 22 18.6665H23.3333C23.5101 18.6665 23.6797 18.7367 23.8047 18.8618C23.9298 18.9868 24 19.1564 24 19.3332V20.6665C24 20.8433 23.9298 21.0129 23.8047 21.1379C23.6797 21.2629 23.5101 21.3332 23.3333 21.3332H22C21.8232 21.3332 21.6536 21.2629 21.5286 21.1379C21.4036 21.0129 21.3333 20.8433 21.3333 20.6665V19.3332ZM22 22.6665C21.8232 22.6665 21.6536 22.7367 21.5286 22.8618C21.4036 22.9868 21.3333 23.1564 21.3333 23.3332V24.6665C21.3333 24.8433 21.4036 25.0129 21.5286 25.1379C21.6536 25.2629 21.8232 25.3332 22 25.3332H23.3333C23.5101 25.3332 23.6797 25.2629 23.8047 25.1379C23.9298 25.0129 24 24.8433 24 24.6665V23.3332C24 23.1564 23.9298 22.9868 23.8047 22.8618C23.6797 22.7367 23.5101 22.6665 23.3333 22.6665H22ZM13.3333 11.3332C13.3333 11.1564 13.4036 10.9868 13.5286 10.8618C13.6536 10.7367 13.8232 10.6665 14 10.6665H15.3333C15.5101 10.6665 15.6797 10.7367 15.8047 10.8618C15.9298 10.9868 16 11.1564 16 11.3332V12.6665C16 12.8433 15.9298 13.0129 15.8047 13.1379C15.6797 13.2629 15.5101 13.3332 15.3333 13.3332H14C13.8232 13.3332 13.6536 13.2629 13.5286 13.1379C13.4036 13.0129 13.3333 12.8433 13.3333 12.6665V11.3332ZM14 14.6665C13.8232 14.6665 13.6536 14.7367 13.5286 14.8618C13.4036 14.9868 13.3333 15.1564 13.3333 15.3332V16.6665C13.3333 16.8433 13.4036 17.0129 13.5286 17.1379C13.6536 17.2629 13.8232 17.3332 14 17.3332H15.3333C15.5101 17.3332 15.6797 17.2629 15.8047 17.1379C15.9298 17.0129 16 16.8433 16 16.6665V15.3332C16 15.1564 15.9298 14.9868 15.8047 14.8618C15.6797 14.7367 15.5101 14.6665 15.3333 14.6665H14ZM13.3333 19.3332C13.3333 19.1564 13.4036 18.9868 13.5286 18.8618C13.6536 18.7367 13.8232 18.6665 14 18.6665H15.3333C15.5101 18.6665 15.6797 18.7367 15.8047 18.8618C15.9298 18.9868 16 19.1564 16 19.3332V20.6665C16 20.8433 15.9298 21.0129 15.8047 21.1379C15.6797 21.2629 15.5101 21.3332 15.3333 21.3332H14C13.8232 21.3332 13.6536 21.2629 13.5286 21.1379C13.4036 21.0129 13.3333 20.8433 13.3333 20.6665V19.3332Z" fill="#4C4ADF"/>
<path d="M13.9987 29.333V25.333H11.332V29.333H13.9987Z" fill="#4C4ADF"/>
</svg>
