<svg width="32" height="32" viewBox="0 0 32 32" fill="none" xmlns="http://www.w3.org/2000/svg">
<path d="M15.8548 2.1974C16.2947 1.79676 16.8639 1.6293 17.4895 1.67404C17.9461 1.70671 18.3343 1.92695 18.634 2.12439L29.1996 10.326C29.5708 10.6155 29.8691 10.9641 30.0667 11.3936C30.2621 11.8185 30.3327 12.2653 30.3327 12.715C30.3327 13.4591 30.18 14.2273 29.6729 14.8159C29.1404 15.4342 28.3816 15.6685 27.5791 15.6685H4.19504C3.43724 15.6685 2.76742 15.3779 2.30174 14.8327C1.85259 14.307 1.66602 13.6318 1.66602 12.9652C1.66602 11.853 2.22276 10.7917 3.43872 10.3853L14.256 6.77032C14.6961 6.62326 14.8159 6.48122 14.8645 6.40234C14.9305 6.29515 14.9969 5.87082 14.9969 5.36972C14.9899 4.90034 14.9779 4.1191 15.1456 3.45972C15.2489 3.05376 15.446 2.56976 15.8548 2.1974Z" fill="#4C4ADF"/>
<path fill-rule="evenodd" clip-rule="evenodd" d="M2.66602 29.0003C2.66602 28.2639 3.26298 27.667 3.99935 27.667H27.9993C28.7357 27.667 29.3327 28.2639 29.3327 29.0003C29.3327 29.7367 28.7357 30.3337 27.9993 30.3337H3.99935C3.26298 30.3337 2.66602 29.7367 2.66602 29.0003Z" fill="#4C4ADF"/>
<path fill-rule="evenodd" clip-rule="evenodd" d="M26.6673 30.3329C27.2196 30.3329 27.6673 29.8851 27.6673 29.3329V18.133C27.6673 17.7559 27.6673 17.5673 27.5501 17.4502C27.4331 17.333 27.2444 17.333 26.8673 17.333H5.13398C4.75686 17.333 4.5683 17.333 4.45114 17.4502C4.33398 17.5673 4.33398 17.7559 4.33398 18.133V29.3329C4.33398 29.8851 4.7817 30.3329 5.33398 30.3329H26.6673ZM16.5976 21.6663H15.4037C14.9567 21.6662 14.5057 21.6661 14.1312 21.729C13.6832 21.8043 13.2218 21.9869 12.8655 22.4322C12.535 22.8454 12.426 23.3239 12.3788 23.7631C12.3339 24.1801 12.3339 24.6973 12.334 25.2822V28.7997C12.334 29.0511 12.334 29.1769 12.4121 29.255C12.4902 29.333 12.6159 29.333 12.8673 29.333H13.8007C14.0521 29.333 14.1777 29.333 14.2558 29.255C14.334 29.1769 14.334 29.0511 14.334 28.7997V25.333C14.334 24.6818 14.3353 24.2741 14.3673 23.977C14.3884 23.7805 14.5 23.6941 14.6867 23.6827C14.8753 23.6713 15.1291 23.6663 15.4673 23.6663H16.534C16.8724 23.6663 17.1263 23.6713 17.3149 23.6827C17.5001 23.6939 17.6129 23.7805 17.634 23.977C17.666 24.2741 17.6673 24.6818 17.6673 25.333V28.7997C17.6673 29.0511 17.6673 29.1769 17.7455 29.255C17.8236 29.333 17.9492 29.333 18.2006 29.333H19.134C19.3855 29.333 19.511 29.333 19.5892 29.255C19.6673 29.1769 19.6673 29.0511 19.6673 28.7997V25.2822C19.6673 24.6974 19.6674 24.1801 19.6225 23.7631C19.5753 23.3239 19.4663 22.8454 19.1357 22.4322C18.7795 21.9869 18.3181 21.8043 17.8701 21.729C17.4956 21.6661 17.0447 21.6662 16.5976 21.6663ZM7.00065 21.333C7.00065 20.7807 7.44837 20.333 8.00065 20.333H9.33398C9.88626 20.333 10.334 20.7807 10.334 21.333C10.334 21.8853 9.88626 22.333 9.33398 22.333H8.00065C7.44837 22.333 7.00065 21.8853 7.00065 21.333ZM24.0007 22.333C24.5529 22.333 25.0007 21.8853 25.0007 21.333C25.0007 20.7807 24.5529 20.333 24.0007 20.333H22.6673C22.115 20.333 21.6673 20.7807 21.6673 21.333C21.6673 21.8853 22.115 22.333 22.6673 22.333H24.0007Z" fill="#4C4ADF"/>
<path fill-rule="evenodd" clip-rule="evenodd" d="M6.66732 2.66699C7.40369 2.66699 8.00065 3.26395 8.00065 4.00033V10.0003C8.00065 10.7367 7.40369 11.3337 6.66732 11.3337C5.93094 11.3337 5.33398 10.7367 5.33398 10.0003V4.00033C5.33398 3.26395 5.93094 2.66699 6.66732 2.66699Z" fill="#4C4ADF"/>
</svg>
