<svg width="32" height="32" viewBox="0 0 32 32" fill="none" xmlns="http://www.w3.org/2000/svg">
<path fill-rule="evenodd" clip-rule="evenodd" d="M6.63058 9.69076C7.33711 9.55524 8.02071 10.0131 8.15743 10.7135C8.29416 11.4138 7.83223 12.0915 7.1257 12.227C6.26563 12.392 5.74582 12.6414 5.36139 12.9801C4.90578 13.3817 4.61267 13.9313 4.44826 15.009C4.27556 16.1409 4.27208 17.6497 4.27208 19.8558C4.27208 22.0619 4.27556 23.5706 4.44826 24.7025C4.61267 25.7802 4.90578 26.3299 5.36139 26.7314C5.83902 27.1523 6.52819 27.4373 7.82882 27.5913C9.15274 27.7482 10.9034 27.7503 13.3933 27.7503H18.6053C21.0952 27.7503 22.846 27.7482 24.1699 27.5913C25.4705 27.4373 26.1596 27.1523 26.6374 26.7314C27.093 26.3299 27.386 25.7802 27.5504 24.7025C27.7231 23.5706 27.7267 22.0619 27.7267 19.8558C27.7267 17.6497 27.7231 16.1409 27.5504 15.009C27.386 13.9313 27.093 13.3817 26.6374 12.9801C26.2528 12.6414 25.7331 12.392 24.8729 12.227C24.1664 12.0915 23.7045 11.4138 23.8412 10.7135C23.978 10.0131 24.6616 9.55524 25.3682 9.69076C26.5264 9.91296 27.5295 10.3098 28.3688 11.0495C29.4397 11.9932 29.91 13.1988 30.1272 14.6227C30.3328 15.9702 30.3327 17.6753 30.3327 19.7529V19.9585C30.3327 22.0362 30.3328 23.7413 30.1272 25.0889C29.91 26.5127 29.4397 27.7183 28.3688 28.6621C27.3199 29.5865 26.0172 29.9742 24.4792 30.1563C22.9824 30.3337 21.0755 30.3337 18.6915 30.3337H13.3072C10.9233 30.3337 9.01631 30.3337 7.51954 30.1563C5.9815 29.9742 4.67887 29.5865 3.6299 28.6621C2.55892 27.7183 2.08872 26.5127 1.8715 25.0889C1.66592 23.7414 1.66596 22.0362 1.66602 19.9586V19.7529C1.66596 17.6753 1.66592 15.9702 1.8715 14.6227C2.08872 13.1988 2.55892 11.9932 3.6299 11.0495C4.46928 10.3098 5.47226 9.91296 6.63058 9.69076Z" fill="#AF3EE8"/>
<path fill-rule="evenodd" clip-rule="evenodd" d="M6.66602 20.0003C6.66602 19.2639 7.26298 18.667 7.99935 18.667H9.33268C10.0691 18.667 10.666 19.2639 10.666 20.0003C10.666 20.7367 10.0691 21.3337 9.33268 21.3337H7.99935C7.26298 21.3337 6.66602 20.7367 6.66602 20.0003ZM13.9993 20.0003C13.9993 19.2639 14.5963 18.667 15.3327 18.667H16.666C17.4024 18.667 17.9993 19.2639 17.9993 20.0003C17.9993 20.7367 17.4024 21.3337 16.666 21.3337H15.3327C14.5963 21.3337 13.9993 20.7367 13.9993 20.0003ZM21.3327 20.0003C21.3327 19.2639 21.9296 18.667 22.666 18.667H23.9993C24.7357 18.667 25.3327 19.2639 25.3327 20.0003C25.3327 20.7367 24.7357 21.3337 23.9993 21.3337H22.666C21.9296 21.3337 21.3327 20.7367 21.3327 20.0003Z" fill="#AF3EE8"/>
<path fill-rule="evenodd" clip-rule="evenodd" d="M15.9876 1.66699C12.4804 1.66699 9.6543 4.53607 9.6543 8.0541C9.6543 10.0792 10.4735 11.6633 11.9911 13.0081C12.8504 13.7695 13.9263 15.0742 14.5624 16.1175C14.8177 16.5363 15.2855 17.0003 15.9788 17.0003C16.6609 17.0003 17.1313 16.5494 17.3961 16.1441C18.0887 15.0843 19.1367 13.7591 19.9843 13.0081C21.5017 11.6633 22.3209 10.0792 22.3209 8.0541C22.3209 4.53607 19.4949 1.66699 15.9876 1.66699ZM15.9772 5.66699C14.6943 5.66699 13.6543 6.71166 13.6543 8.00033C13.6543 9.28899 14.6943 10.3337 15.9772 10.3337H15.9981C17.2809 10.3337 18.3209 9.28899 18.3209 8.00033C18.3209 6.71166 17.2809 5.66699 15.9981 5.66699H15.9772Z" fill="#AF3EE8"/>
</svg>
