<svg width="16" height="16" viewBox="0 0 16 16" fill="none" xmlns="http://www.w3.org/2000/svg">
<path fill-rule="evenodd" clip-rule="evenodd" d="M13.1667 1.33203C13.5349 1.33203 13.8333 1.63051 13.8333 1.9987V3.06381C13.8333 3.432 13.5349 3.73048 13.1667 3.73048C12.7985 3.73048 12.5 3.432 12.5 3.06381V1.9987C12.5 1.63051 12.7985 1.33203 13.1667 1.33203Z" fill="#4D4D4D"/>
<path fill-rule="evenodd" clip-rule="evenodd" d="M10 14.6667C10 15.0349 9.70153 15.3333 9.33333 15.3333H6.66667C6.29848 15.3333 6 15.0349 6 14.6667C6 14.2985 6.29848 14 6.66667 14H9.33333C9.70153 14 10 14.2985 10 14.6667Z" fill="#4D4D4D"/>
<path fill-rule="evenodd" clip-rule="evenodd" d="M7.35728 2.14436L2.22278 3.96304C1.87572 4.08598 1.49472 3.90429 1.37178 3.55722C1.24885 3.21016 1.43054 2.82916 1.7776 2.70623L6.93434 0.879655C6.94908 0.874422 6.96408 0.869709 6.97914 0.865529C6.99728 0.860515 7.01528 0.855535 7.03307 0.850595C7.39401 0.750535 7.69188 0.667969 8.00021 0.667969C8.30848 0.667969 8.60634 0.750535 8.96728 0.850595C8.98514 0.855535 9.00308 0.860515 9.02121 0.865529C9.03634 0.869709 9.05128 0.874422 9.06608 0.879655L14.2228 2.70623C14.5698 2.82916 14.7515 3.21016 14.6286 3.55722C14.5057 3.90429 14.1247 4.08598 13.7776 3.96304L8.64314 2.14436C8.21147 2.02518 8.10028 2.0013 8.00021 2.0013C7.90008 2.0013 7.78888 2.02518 7.35728 2.14436Z" fill="#4D4D4D"/>
<path fill-rule="evenodd" clip-rule="evenodd" d="M8.97659 1.02356L8.93379 1.01172C8.56192 0.908738 8.28499 0.832031 7.99999 0.832031C7.71499 0.832031 7.43806 0.908738 7.06619 1.01172L7.02339 1.02356C7.01206 1.02669 7.00086 1.03022 6.98979 1.03415L2.49972 2.62458C2.30008 2.6953 2.16666 2.8841 2.16666 3.09589V12.6654C2.16666 12.9415 2.39052 13.1654 2.66666 13.1654H6.16666V9.0235C6.16666 8.50203 6.44228 8.10823 6.79919 7.8617C7.14486 7.6229 7.57806 7.5091 7.98812 7.49936C8.39732 7.4897 8.83986 7.58243 9.19639 7.82303C9.57126 8.07603 9.83332 8.4851 9.83332 9.0235V13.1654H13.3333C13.6095 13.1654 13.8333 12.9415 13.8333 12.6654V3.09589C13.8333 2.8841 13.6999 2.6953 13.5003 2.62458L9.01019 1.03415C8.99912 1.03022 8.98792 1.02669 8.97659 1.02356ZM8.83332 9.0235V13.1654H7.16666V9.0235C7.16666 8.89376 7.22439 8.78336 7.36746 8.6845C7.52179 8.5779 7.75526 8.50516 8.01186 8.4991C8.26932 8.49296 8.49346 8.5551 8.63692 8.65196C8.76206 8.73636 8.83332 8.84736 8.83332 9.0235ZM7.99999 4.33203C7.44772 4.33203 6.99999 4.77974 6.99999 5.33203C6.99999 5.88432 7.44772 6.33203 7.99999 6.33203H8.00792C8.56026 6.33203 9.00792 5.88432 9.00792 5.33203C9.00792 4.77974 8.56026 4.33203 8.00792 4.33203H7.99999Z" fill="#4D4D4D"/>
</svg>
