<svg width="16" height="16" viewBox="0 0 16 16" fill="none" xmlns="http://www.w3.org/2000/svg">
<path fill-rule="evenodd" clip-rule="evenodd" d="M9.01313 1.14246C8.39667 0.729305 7.592 0.728491 6.97473 1.14041L2.31568 4.24956C1.80605 4.58964 1.5 5.16183 1.5 5.77451V6.8299H14.5V5.79826C14.5 5.18688 14.1953 4.61574 13.6874 4.27535L9.01313 1.14246ZM14.5 13.332V7.8299H1.5V13.332C1.5 14.3446 2.32081 15.1654 3.33333 15.1654H5.5V10.4987H5.33333C5.05719 10.4987 4.83333 10.2748 4.83333 9.9987C4.83333 9.72256 5.05719 9.4987 5.33333 9.4987H10.6667C10.9428 9.4987 11.1667 9.72256 11.1667 9.9987C11.1667 10.2748 10.9428 10.4987 10.6667 10.4987H10.5V15.1654H12.6667C13.6792 15.1654 14.5 14.3446 14.5 13.332ZM9.5 15.1654H6.5V10.4987H9.5V15.1654ZM9 4.66536C9 4.11308 8.55227 3.66536 8 3.66536C7.44773 3.66536 7 4.11308 7 4.66536V4.67203C7 5.22432 7.44773 5.67203 8 5.67203C8.55227 5.67203 9 5.22432 9 4.67203V4.66536Z" fill="#4D4D4D"/>
</svg>
